:FULLY-SPECIFIED
:FORCE-ALL-JOINTS-BE-3DOF
:DEGREES
408
root 4.57939 16.2155 -11.1822 1.33875 -38.9022 -1.15061
lfemur -28.5956 7.21684 -10.2971
ltibia 45.674 0 0
lfoot -12.0534 14.4371 0
ltoes 1.74946 0 0
rfemur -42.4355 -26.0976 26.3333
rtibia 87.6232 0 0
rfoot 4.62596 -3.41616 0
rtoes 38.6668 0 0
lowerback 5.7728 4.76633 -0.927184
upperback 1.73084 6.22601 -2.31025
thorax -1.27833 3.10274 -2.27115
lowerneck -6.22072 2.47158 7.40129
upperneck 3.71724 2.65565 0.144547
head 2.37489 1.43576 -1.12873
lclavicle -7.94145e-014 1.03368e-014 0
lhumerus -45.6615 -17.7051 94.2025
lradius 51.4418 0 0
lwrist 19.541 0 0
lhand -19.4515 2.6434 0
lfingers 7.12502 0 0
lthumb 6.86932 32.512 0
rclavicle -7.94145e-014 1.03368e-014 0
rhumerus -45.4498 10.1875 -91.5749
rradius 64.5087 0 0
rwrist 7.72207 0 0
rhand -19.1364 -17.4691 0
rfingers 7.12502 0 0
rthumb 7.17347 -767.328 0
409
root 4.51189 16.197 -11.0944 1.41508 -38.6186 -1.37111
lfemur -28.4867 7.44815 -10.0221
ltibia 46.28 -0 0
lfoot -12.6886 13.9482 0.0271432
ltoes 1.51971 -0 0
rfemur -42.7197 -24.9959 25.4432
rtibia 85.6123 -0 0
rfoot 4.52417 -3.19338 -0.00197925
rtoes 37.2369 -0 0
lowerback 5.86008 4.64071 -0.696174
upperback 1.75252 6.07196 -2.25238
thorax -1.29572 3.02597 -2.33478
lowerneck -6.24961 2.63437 7.551
upperneck 3.77264 2.8704 -0.104577
head 2.42163 1.53907 -1.22772
lclavicle -6.01324e-014 -6.36111e-015 0
lhumerus -45.5251 -17.82 94.2647
lradius 51.1593 -0 0
lwrist 19.0904 0 0
lhand -19.6263 2.40833 0.0035855
lfingers 7.12502 -0 0
lthumb 6.70061 32.2817 0.00339186
rclavicle -6.01324e-014 -6.36111e-015 0
rhumerus -45.4491 9.85607 -91.3439
rradius 64.8363 -0 0
rwrist 8.05983 0 0
rhand -19.891 -17.5789 0.00723992
rfingers 7.12502 -0 0
rthumb 6.4448 -47.4486 0.0076782
410
root 4.4444 16.1786 -11.0066 1.48972 -38.3347 -1.59026
lfemur -28.3767 7.67894 -9.74659
ltibia 46.886 -0 0
lfoot -13.3241 13.4591 0.0488641
ltoes 1.28995 -0 0
rfemur -43.02 -23.8984 24.5549
rtibia 83.6014 -0 0
rfoot 4.42237 -2.9706 -0.00356269
rtoes 35.8071 -0 0
lowerback 5.94683 4.51474 -0.465397
upperback 1.77404 5.91789 -2.19459
thorax -1.31303 2.94919 -2.39839
lowerneck -6.27808 2.79723 7.70065
upperneck 3.82712 3.08539 -0.353542
head 2.4682 1.64246 -1.32662
lclavicle -6.01324e-014 -6.36111e-015 0
lhumerus -45.3887 -17.935 94.3266
lradius 50.8768 -0 0
lwrist 18.6397 0 0
lhand -19.801 2.17326 0.006454
lfingers 7.12502 -0 0
lthumb 6.53188 32.0513 0.00610545
rclavicle -6.01324e-014 -6.36111e-015 0
rhumerus -45.4498 9.52464 -91.1131
rradius 65.1639 -0 0
rwrist 8.39758 0 0
rhand -20.6456 -17.6888 0.0130334
rfingers 7.12502 -0 0
rthumb 5.71611 -47.5692 0.0138223
411
root 4.3769 16.1601 -10.9187 1.56269 -38.0506 -1.80809
lfemur -28.2655 7.9092 -9.47044
ltibia 47.4921 -0 0
lfoot -13.9597 12.9698 0.0651586
ltoes 1.0602 -0 0
rfemur -43.3364 -22.8052 23.6676
rtibia 81.5906 -0 0
rfoot 4.32057 -2.74781 -0.0047503
rtoes 34.3772 -0 0
lowerback 6.03306 4.38843 -0.23485
upperback 1.7954 5.76379 -2.13687
thorax -1.33025 2.87238 -2.46197
lowerneck -6.30612 2.96016 7.85023
upperneck 3.88068 3.30062 -0.602355
head 2.5146 1.74593 -1.42545
lclavicle -6.01324e-014 -6.36111e-015 0
lhumerus -45.2523 -18.0501 94.3882
lradius 50.5943 -0 0
lwrist 18.1891 0 0
lhand -19.9758 1.93818 0.00860545
lfingers 7.12502 -0 0
lthumb 6.36315 31.821 0.0081407
rclavicle -6.01324e-014 -6.36111e-015 0
rhumerus -45.4519 9.19321 -90.8826
rradius 65.4915 -0 0
rwrist 8.73534 0 0
rhand -21.4002 -17.7987 0.0173794
rfingers 7.12502 -0 0
rthumb 4.98741 -47.69 0.0184312
412
root 4.30941 16.1417 -10.8309 1.63401 -37.7663 -2.02462
lfemur -28.153 8.13893 -9.19368
ltibia 48.0981 -0 0
lfoot -14.5954 12.4803 0.0760233
ltoes 0.830443 -0 0
rfemur -43.6684 -21.7166 22.7808
rtibia 79.5797 -0 0
rfoot 4.21876 -2.52502 -0.00554205
rtoes 32.9473 -0 0
lowerback 6.11876 4.26177 -0.00453368
upperback 1.8166 5.60967 -2.07922
thorax -1.34739 2.79556 -2.52552
lowerneck -6.33374 3.12317 7.99976
upperneck 3.93331 3.51608 -0.851021
head 2.56081 1.84949 -1.5242
lclavicle -6.01324e-014 -6.36111e-015 0
lhumerus -45.116 -18.1654 94.4496
lradius 50.3118 -0 0
lwrist 17.7385 0 0
lhand -20.1506 1.70309 0.0100398
lfingers 7.12502 -0 0
lthumb 6.1944 31.5906 0.00949756
rclavicle -6.01324e-014 -6.36111e-015 0
rhumerus -45.4553 8.8618 -90.6523
rradius 65.8191 -0 0
rwrist 9.0731 0 0
rhand -22.1548 -17.9087 0.0202772
rfingers 7.12502 -0 0
rthumb 4.25871 -47.8108 0.0215043
413
root 4.24191 16.1232 -10.7431 1.7037 -37.4818 -2.23988
lfemur -28.0394 8.36811 -8.91631
ltibia 48.7041 -0 0
lfoot -15.2311 11.9907 0.0814562
ltoes 0.600688 -0 0
rfemur -44.016 -20.6329 21.8937
rtibia 77.5688 -0 0
rfoot 4.11695 -2.30223 -0.00593793
rtoes 31.5174 -0 0
lowerback 6.20394 4.13477 0.225555
upperback 1.83763 5.45554 -2.02165
thorax -1.36443 2.71872 -2.58905
lowerneck -6.36095 3.28624 8.14924
upperneck 3.98502 3.73176 -1.09955
head 2.60685 1.95312 -1.62287
lclavicle -6.01324e-014 -6.36111e-015 0
lhumerus -44.9798 -18.2808 94.5108
lradius 50.0293 -0 0
lwrist 17.2878 0 0
lhand -20.3254 1.468 0.010757
lfingers 7.12502 -0 0
lthumb 6.02566 31.3603 0.010176
rclavicle -6.01324e-014 -6.36111e-015 0
rhumerus -45.46 8.5304 -90.4221
rradius 66.1467 -0 0
rwrist 9.41086 0 0
rhand -22.9094 -18.0187 0.0217262
rfingers 7.12502 -0 0
rthumb 3.53 -47.9316 0.023041
414
root 4.17442 16.1048 -10.6553 1.77179 -37.1971 -2.45389
lfemur -27.9247 8.59675 -8.63831
ltibia 49.3101 -0 0
lfoot -15.867 11.5011 0.0814562
ltoes 0.370934 -0 0
rfemur -44.379 -19.5544 21.0057
rtibia 75.5579 -0 0
rfoot 4.01514 -2.07944 -0.00593793
rtoes 30.0876 -0 0
lowerback 6.28859 4.00743 0.455419
upperback 1.85851 5.30138 -1.96414
thorax -1.3814 2.64186 -2.65255
lowerneck -6.38773 3.44939 8.29866
upperneck 4.0358 3.94766 -1.34794
head 2.65272 2.05683 -1.72147
lclavicle -6.01324e-014 -6.36111e-015 0
lhumerus -44.8436 -18.3964 94.5717
lradius 49.7468 -0 0
lwrist 16.8372 0 0
lhand -20.5001 1.2329 0.010757
lfingers 7.12502 -0 0
lthumb 5.85691 31.1299 0.010176
rclavicle -6.01324e-014 -6.36111e-015 0
rhumerus -45.4661 8.19902 -90.1921
rradius 66.4744 -0 0
rwrist 9.74861 0 0
rhand -23.664 -18.1287 0.0217262
rfingers 7.12502 -0 0
rthumb 2.80129 -48.0524 0.023041
415
root 4.10692 16.0863 -10.5675 1.83829 -36.9122 -2.66667
lfemur -27.8087 8.82484 -8.35968
ltibia 49.9161 -0 0
lfoot -16.5027 11.0116 0.0760233
ltoes 0.141179 -0 0
rfemur -44.7572 -18.4813 20.1163
rtibia 73.547 -0 0
rfoot 3.91333 -1.85665 -0.00554205
rtoes 28.6577 -0 0
lowerback 6.37272 3.87975 0.685058
upperback 1.87922 5.1472 -1.90671
thorax -1.39827 2.56498 -2.71602
lowerneck -6.41408 3.61261 8.44803
upperneck 4.08565 4.16378 -1.59621
head 2.69841 2.16062 -1.81999
lclavicle -6.01324e-014 -6.36111e-015 0
lhumerus -44.7074 -18.5121 94.6323
lradius 49.4643 -0 0
lwrist 16.3865 0 0
lhand -20.6749 0.997813 0.0100398
lfingers 7.12502 -0 0
lthumb 5.68817 30.8996 0.00949756
rclavicle -6.01324e-014 -6.36111e-015 0
rhumerus -45.4735 7.86768 -89.9623
rradius 66.802 -0 0
rwrist 10.0864 0 0
rhand -24.4186 -18.2387 0.0202772
rfingers 7.12502 -0 0
rthumb 2.07258 -48.1732 0.0215043
416
root 4.03943 16.0679 -10.4797 1.90323 -36.6271 -2.87825
lfemur -27.6915 9.05236 -8.08041
ltibia 50.5221 -0 0
lfoot -17.1384 10.5221 0.0651586
ltoes -0.0885749 0 0
rfemur -45.1505 -17.4139 19.2249
rtibia 71.5361 -0 0
rfoot 3.81152 -1.63387 -0.0047503
rtoes 27.2278 -0 0
lowerback 6.45632 3.75173 0.914475
upperback 1.89978 4.993 -1.84935
thorax -1.41506 2.48808 -2.77946
lowerneck -6.44002 3.7759 8.59736
upperneck 4.13458 4.38012 -1.84436
head 2.74392 2.26448 -1.91843
lclavicle -6.01324e-014 -6.36111e-015 0
lhumerus -44.5712 -18.6279 94.6928
lradius 49.1818 -0 0
lwrist 15.9359 0 0
lhand -20.8497 0.762725 0.00860545
lfingers 7.12502 -0 0
lthumb 5.51942 30.6692 0.0081407
rclavicle -6.01324e-014 -6.36111e-015 0
rhumerus -45.4823 7.53636 -89.7326
rradius 67.1296 -0 0
rwrist 10.4241 0 0
rhand -25.1732 -18.3487 0.0173794
rfingers 7.12502 -0 0
rthumb 1.34387 -48.294 0.0184312
417
root 3.97193 16.0494 -10.3918 1.96662 -36.3418 -3.08866
lfemur -27.5731 9.27932 -7.80049
ltibia 51.1282 -0 0
lfoot -17.774 10.0327 0.0488641
ltoes -0.318329 0 0
rfemur -45.5589 -16.3524 18.3309
rtibia 69.5253 -0 0
rfoot 3.70972 -1.41108 -0.00356269
rtoes 25.7979 -0 0
lowerback 6.5394 3.62338 1.14367
upperback 1.92017 4.83878 -1.79205
thorax -1.43176 2.41116 -2.84288
lowerneck -6.46554 3.93925 8.74664
upperneck 4.18258 4.59666 -2.0924
head 2.78926 2.36843 -2.0168
lclavicle -6.01324e-014 -6.36111e-015 0
lhumerus -44.4351 -18.7439 94.7529
lradius 48.8993 -0 0
lwrist 15.4853 0 0
lhand -21.0245 0.527643 0.006454
lfingers 7.12502 -0 0
lthumb 5.35069 30.4389 0.00610545
rclavicle -6.01324e-014 -6.36111e-015 0
rhumerus -45.4923 7.20508 -89.503
rradius 67.4572 -0 0
rwrist 10.7619 0 0
rhand -25.9278 -18.4586 0.0130334
rfingers 7.12502 -0 0
rthumb 0.615173 -48.4147 0.0138223
418
root 3.90444 16.031 -10.304 2.02848 -36.0563 -3.29791
lfemur -27.4536 9.5057 -7.51991
ltibia 51.7342 -0 0
lfoot -18.4095 9.54362 0.0271432
ltoes -0.548084 0 0
rfemur -45.9823 -15.2972 17.4337
rtibia 67.5144 -0 0
rfoot 3.60792 -1.1883 -0.00197925
rtoes 24.3681 -0 0
lowerback 6.62195 3.49471 1.37265
upperback 1.9404 4.68454 -1.73483
thorax -1.44838 2.33422 -2.90627
lowerneck -6.49063 4.10267 8.89587
upperneck 4.22966 4.81341 -2.34033
head 2.83442 2.47245 -2.11509
lclavicle -6.01324e-014 -6.36111e-015 0
lhumerus -44.299 -18.86 94.8128
lradius 48.6168 -0 0
lwrist 15.0346 0 0
lhand -21.1992 0.292568 0.0035855
lfingers 7.12502 -0 0
lthumb 5.18196 30.2085 0.00339186
rclavicle -6.01324e-014 -6.36111e-015 0
rhumerus -45.5038 6.87384 -89.2735
rradius 67.7848 -0 0
rwrist 11.0996 0 0
rhand -26.6824 -18.5685 0.00723992
rfingers 7.12502 -0 0
rthumb -0.113513 -48.5354 0.0076782
419
root 3.83694 16.0125 -10.2162 2.08884 -35.7706 -3.50602
lfemur -27.3328 9.7315 -7.23867
ltibia 52.3402 0 0
lfoot -19.0447 9.05477 0
ltoes -0.777838 0 0
rfemur -46.4206 -14.2485 16.5328
rtibia 65.5035 0 0
rfoot 3.50613 -0.965517 0
rtoes 22.9382 0 0
lowerback 6.70397 3.3657 1.60141
upperback 1.96048 4.53028 -1.67767
thorax -1.46491 2.25727 -2.96964
lowerneck -6.5153 4.26615 9.04507
upperneck 4.27581 5.03036 -2.58817
head 2.87941 2.57655 -2.21331
lclavicle -6.01324e-014 -6.36111e-015 0
lhumerus -44.163 -18.9762 94.8725
lradius 48.3343 0 0
lwrist 14.584 0 0
lhand -21.374 0.0575023 0
lfingers 7.12502 0 0
lthumb 5.01325 29.9782 0
rclavicle -6.01324e-014 -6.36111e-015 0
rhumerus -45.5165 6.54265 -89.0441
rradius 68.1124 0 0
rwrist 11.4374 0 0
rhand -27.437 -18.6783 0
rfingers 7.12502 0 0
rthumb -0.842185 -768.656 0
420
root 3.72058 15.9664 -10.1579 2.40084 -33.9813 -4.16624
lfemur -27.9204 9.45525 -6.40333
ltibia 53.0202 -0 0
lfoot -19.7207 8.2062 0.0502096
ltoes -2.03258 0 0
rfemur -43.9427 -11.8016 14.3827
rtibia 62.8723 -0 0
rfoot 2.67837 -1.0015 0.00260351
rtoes 16.617 -0 0
lowerback 6.60586 3.17086 1.81753
upperback 1.93163 4.28837 -1.51201
thorax -1.45396 2.13669 -2.90042
lowerneck -6.54443 4.11904 8.97365
upperneck 4.29913 4.82874 -2.43887
head 2.87331 2.48009 -2.16064
lclavicle 1.64991e-014 -1.35174e-014 0
lhumerus -44.0262 -19.7441 95.0779
lradius 48.5303 -0 0
lwrist 14.1976 0 0
lhand -21.0862 -0.0497222 -0.00269389
lfingers 7.12502 -0 0
lthumb 5.29111 29.8624 -0.00280957
rclavicle 1.64991e-014 -1.35174e-014 0
rhumerus -45.871 5.89461 -89.0168
rradius 68.242 -0 0
rwrist 11.5336 0 0
rhand -28.104 -19.4674 0.0460615
rfingers 7.12502 -0 0
rthumb -1.4863 -49.4319 0.0437262
